name analog
datacolumns 19
datarows 56
range 0.533 0.5605
endheader
time	ground_force_vx	ground_force_vy	ground_force_vz	ground_force_px	ground_force_py	ground_force_pz	l_ground_force_vx	l_ground_force_vy	l_ground_force_vz	l_ground_force_px	l_ground_force_py	l_ground_force_pz	ground_torque_x	ground_torque_y	ground_torque_z	l_ground_torque_x	l_ground_torque_y	l_ground_torque_z
0.533	-0.0	-0.0	-0.0	-17.203136444091797	98.47943878173828	-520.8447875976562	7.976787567138672	-79.93470001220703	-421.3836059570313	-0.0	-0.0	-0.0	-0.0	-0.0	-0.0	62685.47265625	-8235.892578125	-610.3130493164062
0.5335	-0.0	-0.0	-0.0	-17.827390670776367	98.6183624267578	-518.1732177734375	6.997158050537109	-79.57418823242188	-417.9200744628906	-0.0	-0.0	-0.0	-0.0	-0.0	-0.0	62522.9140625	-7844.7880859375	-840.9268188476562
0.534	-0.0	-0.0	-0.0	-18.11469078063965	98.588134765625	-518.7820434570312	6.294747352600098	-79.30547332763672	-416.8723754882813	-0.0	-0.0	-0.0	-0.0	-0.0	-0.0	62053.41015625	-8034.3095703125	-1107.019287109375
0.5345	-0.0	-0.0	-0.0	-18.714120864868164	98.85564422607422	-520.6270141601562	4.894219875335693	-78.69086456298828	-416.1291809082031	-0.0	-0.0	-0.0	-0.0	-0.0	-0.0	61513.3203125	-7939.82177734375	-1119.134521484375
0.535	-0.0	-0.0	-0.0	-18.155590057373047	99.1231918334961	-518.9019775390625	4.431684494018555	-78.79061889648438	-412.4087829589844	-0.0	-0.0	-0.0	-0.0	-0.0	-0.0	61439.19140625	-7847.42236328125	-1439.44580078125
0.5355	-0.0	-0.0	-0.0	-18.63469696044922	99.22270965576172	-521.31396484375	4.0846052169799805	-78.68295288085938	-413.410888671875	-0.0	-0.0	-0.0	-0.0	-0.0	-0.0	61230.27734375	-7583.1181640625	-1497.668212890625
0.536	-0.0	-0.0	-0.0	-18.88656234741211	99.39602661132812	-522.4357299804688	3.367037534713745	-78.75921630859375	-413.31732177734375	-0.0	-0.0	-0.0	-0.0	-0.0	-0.0	61615.89453125	-7511.7275390625	-1558.8118896484375
0.5365	-0.0	-0.0	-0.0	-18.39322662353516	99.6689224243164	-522.4159545898438	3.100831985473633	-78.69865417480469	-414.4429931640625	-0.0	-0.0	-0.0	-0.0	-0.0	-0.0	61430.23828125	-7409.9609375	-1770.6680908203125
0.537	-0.0	-0.0	-0.0	-18.27747344970703	99.84739685058594	-526.2169799804688	2.576711893081665	-78.78294372558594	-416.1241760253906	-0.0	-0.0	-0.0	-0.0	-0.0	-0.0	61930.796875	-7552.27734375	-1827.684814453125
0.5375	-0.0	-0.0	-0.0	-18.198944091796875	100.18798065185548	-526.6556396484375	2.306480407714844	-79.30457305908203	-415.82318115234375	-0.0	-0.0	-0.0	-0.0	-0.0	-0.0	61795.09375	-7725.4931640625	-1856.2783203125
0.538	-0.0	-0.0	-0.0	-17.776479721069336	100.5172348022461	-530.05810546875	2.141737222671509	-79.49793243408203	-418.9154052734375	-0.0	-0.0	-0.0	-0.0	-0.0	-0.0	62326.80859375	-7700.4462890625	-1801.338134765625
0.5385	-0.0	-0.0	-0.0	-17.223161697387695	100.69525146484376	-530.2325439453125	2.8301661014556885	-80.20036315917969	-420.4122924804688	-0.0	-0.0	-0.0	-0.0	-0.0	-0.0	62835.21484375	-7886.45654296875	-1824.99560546875
0.539	-0.0	-0.0	-0.0	-16.96120834350586	100.78968811035156	-532.3309326171875	3.2561228275299072	-80.9736099243164	-422.8398132324219	-0.0	-0.0	-0.0	-0.0	-0.0	-0.0	63335.43359375	-8374.4892578125	-1680.8966064453125
0.5395	-0.0	-0.0	-0.0	-16.325523376464844	101.16300964355467	-535.263916015625	2.8431615829467773	-81.33987426757812	-424.6205139160156	-0.0	-0.0	-0.0	-0.0	-0.0	-0.0	63746.48828125	-8533.4189453125	-1584.925048828125
0.54	-0.0	-0.0	-0.0	-16.10131072998047	101.12535095214844	-537.471923828125	3.131757497787476	-82.30689239501953	-428.0245971679688	-0.0	-0.0	-0.0	-0.0	-0.0	-0.0	64195.0546875	-8691.3203125	-1295.7303466796875
0.5405	-0.0	-0.0	-0.0	-15.266592025756836	101.63761901855467	-536.92529296875	3.19814133644104	-83.11070251464844	-431.4976196289063	-0.0	-0.0	-0.0	-0.0	-0.0	-0.0	64776.7265625	-9300.029296875	-1177.2557373046875
0.541	-0.0	-0.0	-0.0	-14.791391372680664	102.22087860107422	-540.3421630859375	4.005805492401123	-84.17973327636719	-434.01361083984375	-0.0	-0.0	-0.0	-0.0	-0.0	-0.0	65240.546875	-9931.51171875	-1008.22900390625
0.5415	-0.0	-0.0	-0.0	-13.863178253173828	102.3868179321289	-543.1907958984375	4.421499729156494	-84.6121826171875	-435.8517150878906	-0.0	-0.0	-0.0	-0.0	-0.0	-0.0	65738.3828125	-10167.8388671875	-741.238037109375
0.542	-0.0	-0.0	-0.0	-13.197176933288574	102.93964385986328	-545.9925537109375	4.948869228363037	-85.39293670654297	-438.9394836425781	-0.0	-0.0	-0.0	-0.0	-0.0	-0.0	66242.5078125	-10159.55078125	-808.01904296875
0.5425	-0.0	-0.0	-0.0	-12.643721580505373	103.1117935180664	-548.5123291015625	5.219545364379883	-85.87733459472656	-440.9596252441406	-0.0	-0.0	-0.0	-0.0	-0.0	-0.0	66736.5625	-10865.9150390625	-447.83392333984375
0.543	-0.0	-0.0	-0.0	-11.4495267868042	102.88704681396484	-551.9960327148438	5.732110023498535	-86.39801025390625	-445.0533142089844	-0.0	-0.0	-0.0	-0.0	-0.0	-0.0	67469.3046875	-11133.4931640625	-459.5719604492188
0.5435	-0.0	-0.0	-0.0	-10.769790649414062	102.69671630859376	-554.2125854492188	5.435977458953857	-86.99195098876953	-445.4593200683594	-0.0	-0.0	-0.0	-0.0	-0.0	-0.0	67704.0234375	-11440.4853515625	-313.2237854003906
0.544	-0.0	-0.0	-0.0	-9.939770698547363	102.54979705810548	-556.5621948242188	5.667515754699707	-87.42854309082031	-448.3891906738281	-0.0	-0.0	-0.0	-0.0	-0.0	-0.0	68188.5703125	-11498.025390625	-344.48052978515625
0.5445	-0.0	-0.0	-0.0	-9.348180770874023	102.8690948486328	-559.43701171875	5.745959758758545	-87.4535903930664	-450.7945861816406	-0.0	-0.0	-0.0	-0.0	-0.0	-0.0	68444.2734375	-11828.8369140625	-285.1030578613281
0.545	-0.0	-0.0	-0.0	-8.041668891906738	102.35983276367188	-561.3287963867188	5.50518274307251	-88.3115005493164	-452.84967041015625	-0.0	-0.0	-0.0	-0.0	-0.0	-0.0	68655.421875	-11793.376953125	-229.5841522216797
0.5455	-0.0	-0.0	-0.0	-7.060500144958496	102.67179107666016	-563.0198364257812	5.155599594116211	-88.2178726196289	-452.5821533203125	-0.0	-0.0	-0.0	-0.0	-0.0	-0.0	68642.4296875	-12144.75390625	-404.3731689453125
0.546	-0.0	-0.0	-0.0	-6.320969104766846	102.32818603515624	-565.492431640625	5.124263763427734	-88.48789978027344	-453.87646484375	-0.0	-0.0	-0.0	-0.0	-0.0	-0.0	68980.578125	-12173.439453125	-346.88836669921875
0.5465	-0.0	-0.0	-0.0	-5.028549671173096	102.219482421875	-567.8355102539062	4.76386308670044	-88.48249816894531	-455.95025634765625	-0.0	-0.0	-0.0	-0.0	-0.0	-0.0	69431.9375	-12066.1455078125	-692.4916381835938
0.547	-0.0	-0.0	-0.0	-4.625694751739502	102.32170104980467	-569.2473754882812	4.231232643127441	-88.5759506225586	-456.3623352050781	-0.0	-0.0	-0.0	-0.0	-0.0	-0.0	69639.171875	-11975.57421875	-586.7017822265625
0.5475	-0.0	-0.0	-0.0	-4.007792949676514	102.80977630615234	-568.6461791992188	3.975693225860596	-88.34331512451172	-458.6783447265625	-0.0	-0.0	-0.0	-0.0	-0.0	-0.0	69449.9609375	-11879.8232421875	-764.8446655273438
0.548	-0.0	-0.0	-0.0	-3.41023063659668	102.29475402832033	-568.6464233398438	3.193588256835937	-88.2497787475586	-456.42767333984375	-0.0	-0.0	-0.0	-0.0	-0.0	-0.0	69633.1015625	-11465.4716796875	-928.7061157226562
0.5485	-0.0	-0.0	-0.0	-3.095098733901977	101.82098388671876	-569.4340209960938	3.093742847442627	-88.57002258300781	-457.1271362304688	-0.0	-0.0	-0.0	-0.0	-0.0	-0.0	69515.078125	-11634.4736328125	-995.4865112304688
0.549	-0.0	-0.0	-0.0	-2.9439468383789062	101.86231994628906	-569.7335815429688	3.0161666870117188	-88.32728576660156	-458.1754150390625	-0.0	-0.0	-0.0	-0.0	-0.0	-0.0	69655.2734375	-11583.9755859375	-1117.8594970703125
0.5495	-0.0	-0.0	-0.0	-2.7655258178710938	101.76611328125	-568.9179077148438	2.6442408561706543	-88.9115982055664	-459.1119995117188	-0.0	-0.0	-0.0	-0.0	-0.0	-0.0	69733.25	-11655.0087890625	-1235.0245361328125
0.55	-0.0	-0.0	-0.0	-2.580105781555176	102.09626007080078	-568.1072998046875	2.626835823059082	-88.32740783691406	-459.4156494140625	-0.0	-0.0	-0.0	-0.0	-0.0	-0.0	69503.0234375	-11209.2919921875	-1207.1285400390625
0.5505	-0.0	-0.0	-0.0	-3.054344654083252	102.30758666992188	-566.7522583007812	2.827122926712036	-88.40422058105469	-457.71490478515625	-0.0	-0.0	-0.0	-0.0	-0.0	-0.0	69391.234375	-11594.5458984375	-1266.333740234375
0.551	-0.0	-0.0	-0.0	-3.6861748695373535	101.8974380493164	-567.8850708007812	1.9810583591461184	-88.59251403808594	-459.7400512695313	-0.0	-0.0	-0.0	-0.0	-0.0	-0.0	69543.984375	-11586.501953125	-1322.3760986328125
0.5515	-0.0	-0.0	-0.0	-3.968402624130249	102.09740447998048	-565.7943115234375	2.6375715732574463	-88.14505004882812	-457.03948974609375	-0.0	-0.0	-0.0	-0.0	-0.0	-0.0	69539.3125	-11647.7958984375	-1260.44580078125
0.552	-0.0	-0.0	-0.0	-5.055983543395996	101.95068359375	-564.619873046875	2.879444122314453	-88.16297149658203	-458.0396728515625	-0.0	-0.0	-0.0	-0.0	-0.0	-0.0	69298.9921875	-11641.8720703125	-1038.95703125
0.5525	-0.0	-0.0	-0.0	-5.6801629066467285	101.19961547851562	-560.936767578125	3.068429946899414	-87.99259185791016	-455.9920043945313	-0.0	-0.0	-0.0	-0.0	-0.0	-0.0	69023.984375	-11651.7626953125	-939.7530517578124
0.553	-0.0	-0.0	-0.0	-6.148143768310547	100.50959777832033	-556.8161010742188	3.270042896270752	-87.9500961303711	-455.2213439941406	-0.0	-0.0	-0.0	-0.0	-0.0	-0.0	68893.578125	-12178.4345703125	-945.7463989257812
0.5535	-0.0	-0.0	-0.0	-7.211141586303711	99.41764068603516	-555.1693115234375	3.612337112426758	-87.72195434570312	-453.7994689941406	-0.0	-0.0	-0.0	-0.0	-0.0	-0.0	68734.0703125	-11905.2216796875	-784.7564086914062
0.554	-0.0	-0.0	-0.0	-6.92177152633667	99.38040161132812	-553.7564086914062	3.827073574066162	-87.38127899169922	-451.4038391113281	-0.0	-0.0	-0.0	-0.0	-0.0	-0.0	68415.90625	-12014.4375	-536.3112182617188
0.5545	-0.0	-0.0	-0.0	-8.051663398742676	98.32596588134766	-548.5183715820312	3.770080089569092	-87.3312759399414	-450.0315856933594	-0.0	-0.0	-0.0	-0.0	-0.0	-0.0	68063.4609375	-12138.5078125	-494.1255187988281
0.555	-0.0	-0.0	-0.0	-8.921051025390625	97.287109375	-545.7537841796875	4.359611034393311	-86.89581298828125	-447.2883911132813	-0.0	-0.0	-0.0	-0.0	-0.0	-0.0	68018.3984375	-12251.9296875	-415.2894592285156
0.5555	-0.0	-0.0	-0.0	-9.37480354309082	97.41952514648438	-543.4829711914062	4.530694961547852	-87.0659408569336	-447.1871337890625	-0.0	-0.0	-0.0	-0.0	-0.0	-0.0	68037.171875	-12483.49609375	-315.5329284667969
0.556	-0.0	-0.0	-0.0	-9.902366638183594	96.50115966796876	-540.8107299804688	4.701671600341797	-86.69950103759766	-445.9691162109375	-0.0	-0.0	-0.0	-0.0	-0.0	-0.0	67644.0625	-12706.9560546875	-281.30157470703125
0.5565	-0.0	-0.0	-0.0	-10.666074752807615	96.8377685546875	-540.9475708007812	4.626123905181885	-86.3917236328125	-445.4915466308594	-0.0	-0.0	-0.0	-0.0	-0.0	-0.0	67734.4140625	-12795.2265625	-173.57591247558594
0.557	-0.0	-0.0	-0.0	-10.574186325073242	96.43122100830078	-538.7026977539062	4.763842582702637	-86.2416000366211	-445.8405151367188	-0.0	-0.0	-0.0	-0.0	-0.0	-0.0	67965.6640625	-13280.755859375	-25.17327690124512
0.5575	-0.0	-0.0	-0.0	-10.91554069519043	96.25287628173828	-536.5119018554688	4.790382385253906	-86.12032318115234	-442.8298645019531	-0.0	-0.0	-0.0	-0.0	-0.0	-0.0	67671.28125	-13239.33203125	-18.467641830444336
0.558	-0.0	-0.0	-0.0	-11.10219669342041	95.9774169921875	-532.8810424804688	4.776858806610107	-86.22216033935547	-443.824951171875	-0.0	-0.0	-0.0	-0.0	-0.0	-0.0	67936.7265625	-13508.5537109375	100.15303802490234
0.5585	-0.0	-0.0	-0.0	-11.51623821258545	95.734130859375	-535.5499267578125	4.524250030517578	-86.0389175415039	-445.0877380371094	-0.0	-0.0	-0.0	-0.0	-0.0	-0.0	68222.078125	-13982.9375	175.31857299804688
0.559	-0.0	-0.0	-0.0	-11.354202270507812	95.6369171142578	-531.2471923828125	4.687875270843506	-86.29714965820312	-443.907470703125	-0.0	-0.0	-0.0	-0.0	-0.0	-0.0	68290.9375	-13826.57421875	243.7774810791016
0.5595	-0.0	-0.0	-0.0	-11.670157432556152	95.54779052734376	-531.665771484375	4.762575149536133	-86.290283203125	-445.2985534667969	-0.0	-0.0	-0.0	-0.0	-0.0	-0.0	68515.140625	-14108.427734375	257.7442321777344
0.56	-0.0	-0.0	-0.0	-11.452038764953612	94.98999786376952	-530.4435424804688	4.776352405548096	-85.99287414550781	-444.7639465332031	-0.0	-0.0	-0.0	-0.0	-0.0	-0.0	68387.03125	-14505.806640625	396.8512878417969
0.5605	-0.0	-0.0	-0.0	-11.979249000549316	95.11048126220705	-530.984375	4.382269382476807	-86.37861633300781	-445.89453125	-0.0	-0.0	-0.0	-0.0	-0.0	-0.0	68678.5546875	-14808.7802734375	480.7247009277344
